<svg width="66" height="66" viewBox="0 0 66 66" fill="none" xmlns="http://www.w3.org/2000/svg">
<circle cx="33" cy="33" r="33" fill="#17A1ED"/>
<path d="M35.832 37.568C36.0385 37.6628 36.2712 37.6845 36.4917 37.6294C36.7122 37.5744 36.9073 37.4458 37.045 37.265L37.4 36.8C37.5863 36.5516 37.8279 36.35 38.1056 36.2111C38.3833 36.0723 38.6895 36 39 36H42C42.5304 36 43.0391 36.2107 43.4142 36.5858C43.7893 36.9609 44 37.4696 44 38V41C44 41.5304 43.7893 42.0391 43.4142 42.4142C43.0391 42.7893 42.5304 43 42 43C37.2261 43 32.6477 41.1036 29.2721 37.7279C25.8964 34.3523 24 29.7739 24 25C24 24.4696 24.2107 23.9609 24.5858 23.5858C24.9609 23.2107 25.4696 23 26 23H29C29.5304 23 30.0391 23.2107 30.4142 23.5858C30.7893 23.9609 31 24.4696 31 25V28C31 28.3105 30.9277 28.6167 30.7889 28.8944C30.65 29.1721 30.4484 29.4137 30.2 29.6L29.732 29.951C29.5484 30.0912 29.419 30.2906 29.3658 30.5154C29.3126 30.7401 29.3388 30.9764 29.44 31.184C30.8067 33.9599 33.0544 36.2048 35.832 37.568Z" stroke="#BCF4FF" stroke-width="2" stroke-linecap="round" stroke-linejoin="round"/>
</svg>
