<svg width="85" height="85" viewBox="0 0 85 85" fill="none" xmlns="http://www.w3.org/2000/svg">
<path d="M44.2709 77.9167H63.7501C65.6287 77.9167 67.4304 77.1704 68.7588 75.842C70.0871 74.5137 70.8334 72.712 70.8334 70.8334V24.7917L53.1251 7.08337H21.2501C19.3715 7.08337 17.5698 7.82965 16.2414 9.15803C14.913 10.4864 14.1667 12.2881 14.1667 14.1667V47.8125" stroke="#052818" stroke-width="5" stroke-linecap="round" stroke-linejoin="round"/>
<path d="M49.5833 7.08337V21.25C49.5833 23.1287 50.3295 24.9303 51.6579 26.2587C52.9863 27.5871 54.788 28.3334 56.6666 28.3334H70.8333" stroke="#052818" stroke-width="5" stroke-linecap="round" stroke-linejoin="round"/>
<path d="M47.3804 55.3418C48.079 54.6432 48.6331 53.8138 49.0112 52.9011C49.3892 51.9884 49.5838 51.0101 49.5838 50.0222C49.5838 49.0342 49.3892 48.056 49.0112 47.1432C48.6331 46.2305 48.079 45.4012 47.3804 44.7026C46.6818 44.004 45.8525 43.4499 44.9397 43.0718C44.027 42.6937 43.0487 42.4991 42.0608 42.4991C41.0729 42.4991 40.0946 42.6937 39.1819 43.0718C38.2691 43.4499 37.4398 44.004 36.7412 44.7026L18.9975 62.4534C18.1554 63.295 17.5391 64.3352 17.2054 65.478L14.241 75.6426C14.1521 75.9473 14.1468 76.2704 14.2256 76.5779C14.3044 76.8854 14.4644 77.1661 14.6888 77.3906C14.9133 77.6151 15.194 77.7751 15.5015 77.8539C15.809 77.9326 16.1321 77.9273 16.4368 77.8384L26.6014 74.8741C27.7442 74.5404 28.7844 73.924 29.626 73.082L47.3804 55.3418Z" stroke="#052818" stroke-width="5" stroke-linecap="round" stroke-linejoin="round"/>
</svg>
