<svg width="86" height="76" viewBox="0 0 86 76" fill="none" xmlns="http://www.w3.org/2000/svg">
<path d="M10.675 22.1667V15.8333C10.675 14.1536 11.4248 12.5427 12.7595 11.355C14.0941 10.1673 15.9043 9.5 17.7917 9.5H24.9084" stroke="#052818" stroke-width="5" stroke-linecap="round" stroke-linejoin="round"/>
<path d="M60.4917 9.5H67.6084C69.4958 9.5 71.306 10.1673 72.6406 11.355C73.9752 12.5427 74.725 14.1536 74.725 15.8333V22.1667" stroke="#052818" stroke-width="5" stroke-linecap="round" stroke-linejoin="round"/>
<path d="M74.725 53.8335V60.1668C74.725 61.8465 73.9752 63.4574 72.6406 64.6452C71.306 65.8329 69.4958 66.5002 67.6084 66.5002H60.4917" stroke="#052818" stroke-width="5" stroke-linecap="round" stroke-linejoin="round"/>
<path d="M24.9084 66.5002H17.7917C15.9043 66.5002 14.0941 65.8329 12.7595 64.6452C11.4248 63.4574 10.675 61.8465 10.675 60.1668V53.8335" stroke="#052818" stroke-width="5" stroke-linecap="round" stroke-linejoin="round"/>
<path d="M42.7002 41.1668C44.6654 41.1668 46.2585 39.7491 46.2585 38.0002C46.2585 36.2513 44.6654 34.8335 42.7002 34.8335C40.735 34.8335 39.1418 36.2513 39.1418 38.0002C39.1418 39.7491 40.735 41.1668 42.7002 41.1668Z" stroke="#052818" stroke-width="5" stroke-linecap="round" stroke-linejoin="round"/>
<path d="M67.4092 39.045C67.675 38.3684 67.675 37.6316 67.4092 36.955C65.4058 32.5864 61.9856 28.8478 57.5849 26.2161C53.1841 23.5844 48.0022 22.179 42.7001 22.179C37.3981 22.179 32.2162 23.5844 27.8154 26.2161C23.4147 28.8478 19.9945 32.5864 17.9911 36.955C17.7253 37.6316 17.7253 38.3684 17.9911 39.045C19.9945 43.4137 23.4147 47.1522 27.8154 49.7839C32.2162 52.4156 37.3981 53.8211 42.7001 53.8211C48.0022 53.8211 53.1841 52.4156 57.5849 49.7839C61.9856 47.1522 65.4058 43.4137 67.4092 39.045Z" stroke="#052818" stroke-width="5" stroke-linecap="round" stroke-linejoin="round"/>
</svg>
