<svg width="122" height="122" viewBox="0 0 122 122" fill="none" xmlns="http://www.w3.org/2000/svg">
<circle cx="61" cy="61" r="61" fill="#17A1ED"/>
<path d="M63.8358 28.4483C62.9455 28.0422 61.9785 27.832 61 27.832C60.0215 27.832 59.0544 28.0422 58.1641 28.4483L28.8833 41.7733C28.277 42.0406 27.7615 42.4784 27.3996 43.0335C27.0378 43.5886 26.8451 44.2369 26.8451 44.8995C26.8451 45.5621 27.0378 46.2104 27.3996 46.7655C27.7615 47.3206 28.277 47.7584 28.8833 48.0258L58.1983 61.3849C59.0885 61.791 60.0556 62.0011 61.0341 62.0011C62.0126 62.0011 62.9797 61.791 63.87 61.3849L93.185 48.0599C93.7912 47.7926 94.3067 47.3547 94.6686 46.7997C95.0305 46.2446 95.2232 45.5963 95.2232 44.9337C95.2232 44.2711 95.0305 43.6227 94.6686 43.0677C94.3067 42.5126 93.7912 42.0748 93.185 41.8074L63.8358 28.4483Z" stroke="white" stroke-width="4" stroke-linecap="round" stroke-linejoin="round"/>
<path d="M26.8334 62C26.8318 62.6535 27.0176 63.2937 27.3688 63.8448C27.7201 64.3959 28.222 64.8347 28.8151 65.1092L58.1984 78.4683C59.084 78.8694 60.045 79.0768 61.0171 79.0768C61.9893 79.0768 62.9503 78.8694 63.8359 78.4683L93.1509 65.1433C93.7557 64.8715 94.2683 64.4296 94.6262 63.8714C94.9842 63.3133 95.172 62.663 95.1667 62" stroke="white" stroke-width="4" stroke-linecap="round" stroke-linejoin="round"/>
<path d="M26.8334 79.0835C26.8318 79.737 27.0176 80.3772 27.3688 80.9283C27.7201 81.4794 28.222 81.9182 28.8151 82.1927L58.1984 95.5518C59.084 95.9528 60.045 96.1603 61.0171 96.1603C61.9893 96.1603 62.9503 95.9528 63.8359 95.5518L93.1509 82.2268C93.7557 81.955 94.2683 81.5131 94.6262 80.9549C94.9842 80.3968 95.172 79.7465 95.1667 79.0835" stroke="white" stroke-width="4" stroke-linecap="round" stroke-linejoin="round"/>
</svg>
