<svg width="122" height="122" viewBox="0 0 122 122" fill="none" xmlns="http://www.w3.org/2000/svg">
<circle cx="61" cy="61" r="61" fill="#17A1ED"/>
<path d="M73 89V83C73 79.8174 71.7357 76.7652 69.4853 74.5147C67.2348 72.2643 64.1826 71 61 71H43C39.8174 71 36.7652 72.2643 34.5147 74.5147C32.2643 76.7652 31 79.8174 31 83V89" stroke="white" stroke-width="4" stroke-linecap="round" stroke-linejoin="round"/>
<path d="M73 35.3838C75.5733 36.0509 77.8522 37.5536 79.479 39.656C81.1059 41.7584 81.9886 44.3415 81.9886 46.9998C81.9886 49.6581 81.1059 52.2412 79.479 54.3436C77.8522 56.446 75.5733 57.9487 73 58.6158" stroke="white" stroke-width="4" stroke-linecap="round" stroke-linejoin="round"/>
<path d="M91 89.0001V83.0001C90.998 80.3413 90.1131 77.7585 88.4841 75.6571C86.8551 73.5557 84.5744 72.0548 82 71.3901" stroke="white" stroke-width="4" stroke-linecap="round" stroke-linejoin="round"/>
<path d="M52 59C58.6274 59 64 53.6274 64 47C64 40.3726 58.6274 35 52 35C45.3726 35 40 40.3726 40 47C40 53.6274 45.3726 59 52 59Z" stroke="white" stroke-width="4" stroke-linecap="round" stroke-linejoin="round"/>
</svg>
