<svg width="122" height="122" viewBox="0 0 122 122" fill="none" xmlns="http://www.w3.org/2000/svg">
<circle cx="61" cy="61" r="61" fill="#17A1ED"/>
<path d="M84.5667 39.4335C79.3763 34.2375 72.6152 30.9012 65.3338 29.9428C58.0523 28.9844 50.6582 30.4576 44.3 34.1335" stroke="white" stroke-width="4" stroke-linecap="round" stroke-linejoin="round"/>
<path d="M34.3333 43H34.3657" stroke="white" stroke-width="4" stroke-linecap="round" stroke-linejoin="round"/>
<path d="M28.6334 55.0668C27.3838 60.157 27.352 65.4702 28.5409 70.575C29.7297 75.6797 32.1056 80.4322 35.4756 84.4465C38.8456 88.4609 43.1147 91.6239 47.9364 93.6789C52.7582 95.7339 57.9965 96.6229 63.2262 96.2737C68.456 95.9245 73.5296 94.347 78.0353 91.6692C82.541 88.9914 86.3517 85.2888 89.1581 80.862C91.9645 76.4353 93.6874 71.4091 94.187 66.1916C94.6866 60.9741 93.9488 55.7124 92.0334 50.8335" stroke="white" stroke-width="4" stroke-linecap="round" stroke-linejoin="round"/>
<path d="M75.1333 48.8667C73.215 46.9373 70.9232 45.4195 68.3981 44.4063C65.873 43.3931 63.1678 42.9057 60.4479 42.9741C57.7279 43.0424 55.0505 43.665 52.5795 44.8037C50.1085 45.9425 47.8958 47.5734 46.0768 49.5968C44.2579 51.6201 42.8709 53.9934 42.0007 56.5712C41.1305 59.1491 40.7955 61.8774 41.016 64.5892C41.2366 67.3011 42.0082 69.9394 43.2836 72.3427C44.5589 74.7461 46.3112 76.8639 48.4333 78.5667" stroke="white" stroke-width="4" stroke-linecap="round" stroke-linejoin="round"/>
<path d="M61 83H61.0324" stroke="white" stroke-width="4" stroke-linecap="round" stroke-linejoin="round"/>
<path d="M80.9666 61.8667C81.148 65.0379 80.5714 68.2068 79.2845 71.1108C77.9977 74.0149 76.0376 76.5707 73.5667 78.5667" stroke="white" stroke-width="4" stroke-linecap="round" stroke-linejoin="round"/>
<path d="M60.9999 69.6668C64.6818 69.6668 67.6666 66.6821 67.6666 63.0002C67.6666 59.3183 64.6818 56.3335 60.9999 56.3335C57.318 56.3335 54.3333 59.3183 54.3333 63.0002C54.3333 66.6821 57.318 69.6668 60.9999 69.6668Z" stroke="white" stroke-width="4" stroke-linecap="round" stroke-linejoin="round"/>
<path d="M65.7 58.2998L84.5666 39.4331" stroke="white" stroke-width="4" stroke-linecap="round" stroke-linejoin="round"/>
</svg>
