<svg width="88" height="88" viewBox="0 0 88 88" fill="none" xmlns="http://www.w3.org/2000/svg">
<path d="M43.9999 54.8873C46.8761 54.8873 49.6346 53.7447 51.6685 51.7108C53.7023 49.677 54.8449 46.9185 54.8449 44.0422C54.8449 41.1659 53.7023 38.4074 51.6685 36.3736C49.6346 34.3397 46.8761 33.1971 43.9999 33.1971C41.1236 33.1971 38.3651 34.3397 36.3312 36.3736C34.2974 38.4074 33.1548 41.1659 33.1548 44.0422C33.1548 46.9185 34.2974 49.677 36.3312 51.7108C38.3651 53.7447 41.1236 54.8873 43.9999 54.8873Z" fill="#17A1ED"/>
<path fill-rule="evenodd" clip-rule="evenodd" d="M3.50021 46.6017C2.86256 44.946 2.86256 43.1125 3.50021 41.4568C6.65291 33.276 12.2104 26.2425 19.4402 21.2832C26.67 16.324 35.2328 13.6717 44 13.676C62.467 13.676 78.2401 25.2152 84.4999 41.4828C85.1376 43.1356 85.1332 44.9706 84.4999 46.6277C81.3472 54.8085 75.7897 61.842 68.5599 66.8012C61.3301 71.7605 52.7673 74.4128 44 74.4084C25.5331 74.4084 9.75999 62.8693 3.50021 46.6017ZM61.3522 44.0422C61.3522 48.6443 59.524 53.0579 56.2698 56.312C53.0157 59.5662 48.6021 61.3943 44 61.3943C39.398 61.3943 34.9844 59.5662 31.7302 56.312C28.4761 53.0579 26.6479 48.6443 26.6479 44.0422C26.6479 39.4402 28.4761 35.0266 31.7302 31.7724C34.9844 28.5183 39.398 26.6901 44 26.6901C48.6021 26.6901 53.0157 28.5183 56.2698 31.7724C59.524 35.0266 61.3522 39.4402 61.3522 44.0422Z" fill="#17A1ED"/>
</svg>
