<svg width="104" height="24" viewBox="0 0 104 24" fill="none" xmlns="http://www.w3.org/2000/svg">
<path d="M97 2H87C84.2386 2 82 4.23858 82 7V17C82 19.7614 84.2386 22 87 22H97C99.7614 22 102 19.7614 102 17V7C102 4.23858 99.7614 2 97 2Z" stroke="#CBD5E1" stroke-width="2" stroke-linecap="round" stroke-linejoin="round"/>
<path d="M96 11.3698C96.1234 12.2021 95.9812 13.052 95.5937 13.7988C95.2062 14.5456 94.5931 15.1512 93.8416 15.5295C93.0901 15.9077 92.2384 16.0394 91.4077 15.9057C90.5771 15.7721 89.8097 15.3799 89.2148 14.785C88.6199 14.1901 88.2277 13.4227 88.094 12.592C87.9604 11.7614 88.092 10.9097 88.4703 10.1582C88.8485 9.40667 89.4541 8.79355 90.2009 8.40605C90.9477 8.01856 91.7977 7.8764 92.63 7.99981C93.4789 8.1257 94.2648 8.52128 94.8716 9.12812C95.4785 9.73496 95.8741 10.5209 96 11.3698Z" stroke="#CBD5E1" stroke-width="2" stroke-linecap="round" stroke-linejoin="round"/>
<path d="M97.5 6.5H97.51" stroke="#CBD5E1" stroke-width="2" stroke-linecap="round" stroke-linejoin="round"/>
<path d="M62 4.00002C62 4.00002 61.3 6.10002 60 7.40002C61.6 17.4 50.6 24.7 42 19C44.2 19.1 46.4 18.4 48 17C43 15.5 40.5 9.60002 43 5.00002C45.2 7.60002 48.6 9.10002 52 9.00002C51.1 4.80002 56 2.40002 59 5.20002C60.1 5.20002 62 4.00002 62 4.00002Z" stroke="#CBD5E1" stroke-width="2" stroke-linecap="round" stroke-linejoin="round"/>
<path d="M16 8C17.5913 8 19.1174 8.63214 20.2426 9.75736C21.3679 10.8826 22 12.4087 22 14V21H18V14C18 13.4696 17.7893 12.9609 17.4142 12.5858C17.0391 12.2107 16.5304 12 16 12C15.4696 12 14.9609 12.2107 14.5858 12.5858C14.2107 12.9609 14 13.4696 14 14V21H10V14C10 12.4087 10.6321 10.8826 11.7574 9.75736C12.8826 8.63214 14.4087 8 16 8Z" stroke="#CBD5E1" stroke-width="2" stroke-linecap="round" stroke-linejoin="round"/>
<path d="M6 9H2V21H6V9Z" stroke="#CBD5E1" stroke-width="2" stroke-linecap="round" stroke-linejoin="round"/>
<path d="M4 6C5.10457 6 6 5.10457 6 4C6 2.89543 5.10457 2 4 2C2.89543 2 2 2.89543 2 4C2 5.10457 2.89543 6 4 6Z" stroke="#CBD5E1" stroke-width="2" stroke-linecap="round" stroke-linejoin="round"/>
</svg>
