<svg width="68" height="68" viewBox="0 0 68 68" fill="none" xmlns="http://www.w3.org/2000/svg">
<path d="M46.6269 46.1683C47.1137 45.79 47.5559 45.3477 48.4377 44.4659L59.4449 33.456C59.7119 33.1917 59.5895 32.7327 59.2363 32.6076C57.5125 32.0101 55.9482 31.0262 54.6632 29.7313C53.3682 28.4462 52.3844 26.882 51.7869 25.1582C51.6617 24.8049 51.2027 24.6825 50.9385 24.9496L39.9258 35.9567C39.044 36.8385 38.6017 37.2808 38.2234 37.7676C37.7727 38.3443 37.3907 38.9619 37.0773 39.6202C36.8131 40.1765 36.6156 40.7718 36.2206 41.9568L35.7087 43.4867L34.8965 45.9207L34.1371 48.2017C34.0424 48.4876 34.029 48.7942 34.0985 49.0872C34.168 49.3803 34.3175 49.6482 34.5305 49.8612C34.7434 50.0741 35.0114 50.2237 35.3044 50.2932C35.5975 50.3626 35.9041 50.3493 36.19 50.2546L38.4709 49.4952L40.9049 48.6829L42.4349 48.1711C43.6199 47.7761 44.2151 47.5814 44.7715 47.3143C45.4298 46.9991 46.0501 46.6171 46.6269 46.1683ZM62.8942 30.0095C64.0226 28.8807 64.6563 27.3499 64.6561 25.7539C64.6558 24.1578 64.0215 22.6273 62.8928 21.4989C61.764 20.3705 60.2333 19.7367 58.6372 19.737C57.0412 19.7372 55.5106 20.3715 54.3822 21.5003L54.0317 21.8563C53.8625 22.0218 53.7365 22.2263 53.6647 22.4518C53.5929 22.6773 53.5776 22.917 53.62 23.1498C53.6757 23.4474 53.773 23.887 53.9538 24.4071C54.3154 25.4503 54.9997 26.8189 56.2877 28.1068C57.5756 29.3947 58.9442 30.079 59.9873 30.4406C60.5103 30.6214 60.947 30.7188 61.2446 30.7744C61.4775 30.8144 61.7165 30.7979 61.9416 30.7263C62.1667 30.6546 62.3713 30.53 62.5381 30.3627L62.8942 30.0095Z" fill="#16A0EC"/>
<path fill-rule="evenodd" clip-rule="evenodd" d="M12.2814 9.09113C9.02124 12.3485 9.02124 17.5948 9.02124 28.0845V39.2113C9.02124 49.701 9.02124 54.9473 12.2814 58.2047C15.5415 61.462 20.785 61.4648 31.2748 61.4648H36.8381C47.3279 61.4648 52.5742 61.4648 55.8315 58.2047C59.0388 55.0001 59.0917 49.8707 59.0917 39.712L51.2529 47.5508C50.5018 48.3018 49.887 48.9166 49.1944 49.459C48.382 50.0953 47.5012 50.6393 46.5685 51.0807C45.7148 51.4648 44.8378 51.7946 43.9426 52.0682L37.5113 54.2129C36.4904 54.5534 35.3948 54.6028 34.3474 54.3556C33.2999 54.1084 32.342 53.5744 31.581 52.8134C30.8201 52.0524 30.286 51.0945 30.0389 50.0471C29.7917 48.9997 29.8411 47.9041 30.1816 46.8832L30.9437 44.6022L32.265 40.6355L32.3235 40.4519C32.66 39.4449 32.9354 38.6216 33.3137 37.826C33.7588 36.8913 34.2994 36.017 34.9355 35.2029C35.4779 34.5074 36.0926 33.8955 36.8437 33.1444L47.9872 21.9982L51.0804 18.9049L51.4337 18.5517C52.3789 17.6035 53.5023 16.8517 54.7393 16.3395C55.9762 15.8272 57.3022 15.5647 58.641 15.5669C58.221 12.7018 57.406 10.6628 55.8315 9.09113C52.5742 5.83099 47.3279 5.83099 36.8381 5.83099H31.2748C20.785 5.83099 15.5387 5.83099 12.2814 9.09113ZM20.8434 25.3028C20.8434 24.7495 21.0632 24.2189 21.4545 23.8276C21.8457 23.4364 22.3764 23.2166 22.9297 23.2166H41.0107C41.564 23.2166 42.0946 23.4364 42.4859 23.8276C42.8771 24.2189 43.0969 24.7495 43.0969 25.3028C43.0969 25.8561 42.8771 26.3868 42.4859 26.778C42.0946 27.1693 41.564 27.3891 41.0107 27.3891H22.9297C22.3764 27.3891 21.8457 27.1693 21.4545 26.778C21.0632 26.3868 20.8434 25.8561 20.8434 25.3028ZM20.8434 36.4296C20.8434 35.8763 21.0632 35.3456 21.4545 34.9544C21.8457 34.5631 22.3764 34.3433 22.9297 34.3433H29.8839C30.4372 34.3433 30.9679 34.5631 31.3591 34.9544C31.7504 35.3456 31.9702 35.8763 31.9702 36.4296C31.9702 36.9829 31.7504 37.5135 31.3591 37.9048C30.9679 38.296 30.4372 38.5159 29.8839 38.5159H22.9297C22.3764 38.5159 21.8457 38.296 21.4545 37.9048C21.0632 37.5135 20.8434 36.9829 20.8434 36.4296ZM20.8434 47.5563C20.8434 47.003 21.0632 46.4724 21.4545 46.0811C21.8457 45.6899 22.3764 45.4701 22.9297 45.4701H27.1022C27.6555 45.4701 28.1862 45.6899 28.5774 46.0811C28.9687 46.4724 29.1885 47.003 29.1885 47.5563C29.1885 48.1097 28.9687 48.6403 28.5774 49.0316C28.1862 49.4228 27.6555 49.6426 27.1022 49.6426H22.9297C22.3764 49.6426 21.8457 49.4228 21.4545 49.0316C21.0632 48.6403 20.8434 48.1097 20.8434 47.5563Z" fill="#16A0EC"/>
</svg>
