<svg width="122" height="122" viewBox="0 0 122 122" fill="none" xmlns="http://www.w3.org/2000/svg">
<circle cx="61" cy="61" r="61" fill="#DDF8F8"/>
<path d="M60.4999 94.9166C80.06 94.9166 95.9166 79.06 95.9166 59.4999C95.9166 39.9398 80.06 24.0833 60.4999 24.0833C40.9398 24.0833 25.0833 39.9398 25.0833 59.4999C25.0833 79.06 40.9398 94.9166 60.4999 94.9166Z" stroke="#17A1ED" stroke-width="4" stroke-linecap="round" stroke-linejoin="round"/>
<path d="M60.4999 24.0833C51.4057 33.6321 46.3333 46.3134 46.3333 59.4999C46.3333 72.6865 51.4057 85.3677 60.4999 94.9166C69.5941 85.3677 74.6666 72.6865 74.6666 59.4999C74.6666 46.3134 69.5941 33.6321 60.4999 24.0833Z" stroke="#17A1ED" stroke-width="4" stroke-linecap="round" stroke-linejoin="round"/>
<path d="M25.0833 59.5H95.9166" stroke="#17A1ED" stroke-width="4" stroke-linecap="round" stroke-linejoin="round"/>
</svg>
