<svg width="122" height="122" viewBox="0 0 122 122" fill="none" xmlns="http://www.w3.org/2000/svg">
<circle cx="61" cy="61" r="61" fill="#DDF8F8"/>
<path d="M33.9376 81.4375C28.6251 85.9 26.8542 99.1459 26.8542 99.1459C26.8542 99.1459 40.1001 97.375 44.5626 92.0625C47.0772 89.0875 47.0417 84.5188 44.2438 81.7563C42.8672 80.4424 41.0538 79.6831 39.1517 79.6243C37.2496 79.5655 35.3928 80.2112 33.9376 81.4375Z" stroke="#17A1ED" stroke-width="4" stroke-linecap="round" stroke-linejoin="round"/>
<path d="M60.5 76.1251L49.875 65.5001C51.7597 60.6105 54.1328 55.9236 56.9583 51.5105C61.085 44.9123 66.8312 39.4796 73.6502 35.7291C80.4693 31.9787 88.1344 30.0351 95.9167 30.0834C95.9167 39.7167 93.1542 56.6459 74.6667 69.0417C70.1931 71.8705 65.4472 74.2435 60.5 76.1251Z" stroke="#17A1ED" stroke-width="4" stroke-linecap="round" stroke-linejoin="round"/>
<path d="M49.8751 65.5H32.1667C32.1667 65.5 34.1147 54.7687 39.2501 51.3333C44.9876 47.5083 56.9584 51.3333 56.9584 51.3333" stroke="#17A1ED" stroke-width="4" stroke-linecap="round" stroke-linejoin="round"/>
<path d="M60.5 76.1251V93.8334C60.5 93.8334 71.2313 91.8855 74.6667 86.7501C78.4917 81.0126 74.6667 69.0417 74.6667 69.0417" stroke="#17A1ED" stroke-width="4" stroke-linecap="round" stroke-linejoin="round"/>
</svg>
