<svg width="122" height="122" viewBox="0 0 122 122" fill="none" xmlns="http://www.w3.org/2000/svg">
<circle cx="61" cy="61" r="61" fill="#DDF8F8"/>
<path d="M28.675 45.1667V38.8333C28.675 37.1536 29.4248 35.5427 30.7595 34.355C32.0941 33.1673 33.9043 32.5 35.7917 32.5H42.9084" stroke="#17A1ED" stroke-width="5" stroke-linecap="round" stroke-linejoin="round"/>
<path d="M78.4917 32.5H85.6084C87.4958 32.5 89.306 33.1673 90.6406 34.355C91.9752 35.5427 92.725 37.1536 92.725 38.8333V45.1667" stroke="#17A1ED" stroke-width="5" stroke-linecap="round" stroke-linejoin="round"/>
<path d="M92.725 76.8335V83.1668C92.725 84.8465 91.9752 86.4574 90.6406 87.6452C89.306 88.8329 87.4958 89.5002 85.6084 89.5002H78.4917" stroke="#17A1ED" stroke-width="5" stroke-linecap="round" stroke-linejoin="round"/>
<path d="M42.9084 89.5002H35.7917C33.9043 89.5002 32.0941 88.8329 30.7595 87.6452C29.4248 86.4574 28.675 84.8465 28.675 83.1668V76.8335" stroke="#17A1ED" stroke-width="5" stroke-linecap="round" stroke-linejoin="round"/>
<path d="M60.7002 64.1668C62.6654 64.1668 64.2585 62.7491 64.2585 61.0002C64.2585 59.2513 62.6654 57.8335 60.7002 57.8335C58.735 57.8335 57.1418 59.2513 57.1418 61.0002C57.1418 62.7491 58.735 64.1668 60.7002 64.1668Z" stroke="#17A1ED" stroke-width="5" stroke-linecap="round" stroke-linejoin="round"/>
<path d="M85.4092 62.045C85.675 61.3684 85.675 60.6316 85.4092 59.955C83.4058 55.5864 79.9856 51.8478 75.5849 49.2161C71.1841 46.5844 66.0022 45.179 60.7001 45.179C55.3981 45.179 50.2162 46.5844 45.8154 49.2161C41.4147 51.8478 37.9945 55.5864 35.9911 59.955C35.7253 60.6316 35.7253 61.3684 35.9911 62.045C37.9945 66.4137 41.4147 70.1522 45.8154 72.7839C50.2162 75.4156 55.3981 76.8211 60.7001 76.8211C66.0022 76.8211 71.1841 75.4156 75.5849 72.7839C79.9856 70.1522 83.4058 66.4137 85.4092 62.045Z" stroke="#17A1ED" stroke-width="5" stroke-linecap="round" stroke-linejoin="round"/>
</svg>
