<svg width="122" height="122" viewBox="0 0 122 122" fill="none" xmlns="http://www.w3.org/2000/svg">
<circle cx="61" cy="61" r="61" fill="#DDF8F8"/>
<path d="M62.2709 96.9166H81.7501C83.6287 96.9166 85.4304 96.1703 86.7588 94.8419C88.0871 93.5135 88.8334 91.7119 88.8334 89.8333V43.7916L71.1251 26.0833H39.2501C37.3715 26.0833 35.5698 26.8295 34.2414 28.1579C32.913 29.4863 32.1667 31.288 32.1667 33.1666V66.8124" stroke="#17A1ED" stroke-width="4.66667" stroke-linecap="round" stroke-linejoin="round"/>
<path d="M67.5833 26.0833V40.2499C67.5833 42.1285 68.3295 43.9302 69.6579 45.2586C70.9863 46.587 72.788 47.3333 74.6666 47.3333H88.8333" stroke="#17A1ED" stroke-width="4.66667" stroke-linecap="round" stroke-linejoin="round"/>
<path d="M65.3804 74.3416C66.079 73.6431 66.6331 72.8137 67.0112 71.901C67.3892 70.9883 67.5838 70.01 67.5838 69.022C67.5838 68.0341 67.3892 67.0558 67.0112 66.1431C66.6331 65.2304 66.079 64.401 65.3804 63.7025C64.6818 63.0039 63.8525 62.4497 62.9397 62.0717C62.027 61.6936 61.0487 61.499 60.0608 61.499C59.0729 61.499 58.0946 61.6936 57.1819 62.0717C56.2691 62.4497 55.4398 63.0039 54.7412 63.7025L36.9975 81.4533C36.1554 82.2949 35.5391 83.3351 35.2054 84.4779L32.241 94.6425C32.1521 94.9472 32.1468 95.2703 32.2256 95.5778C32.3044 95.8853 32.4644 96.166 32.6888 96.3905C32.9133 96.6149 33.194 96.7749 33.5015 96.8537C33.809 96.9325 34.1321 96.9272 34.4368 96.8383L44.6014 93.8739C45.7442 93.5402 46.7844 92.9239 47.626 92.0818L65.3804 74.3416Z" stroke="#17A1ED" stroke-width="4.66667" stroke-linecap="round" stroke-linejoin="round"/>
</svg>
