<svg width="122" height="122" viewBox="0 0 122 122" fill="none" xmlns="http://www.w3.org/2000/svg">
<circle cx="61" cy="61" r="61" fill="#DDF8F8"/>
<path d="M60.5 39.7917V53.9584" stroke="#17A1ED" stroke-width="4" stroke-linecap="round" stroke-linejoin="round"/>
<path d="M67.5834 89.3751V78.7501C67.5834 76.8715 66.8371 75.0698 65.5088 73.7414C64.1804 72.413 62.3787 71.6667 60.5001 71.6667C58.6215 71.6667 56.8198 72.413 55.4914 73.7414C54.163 75.0698 53.4167 76.8715 53.4167 78.7501V89.3751" stroke="#17A1ED" stroke-width="4" stroke-linecap="round" stroke-linejoin="round"/>
<path d="M67.5834 46.875H53.4167" stroke="#17A1ED" stroke-width="4" stroke-linecap="round" stroke-linejoin="round"/>
<path d="M81.75 53.9583H88.8334C90.712 53.9583 92.5137 54.7045 93.842 56.0329C95.1704 57.3613 95.9167 59.163 95.9167 61.0416V82.2916C95.9167 84.1702 95.1704 85.9719 93.842 87.3003C92.5137 88.6286 90.712 89.3749 88.8334 89.3749H32.1667C30.2881 89.3749 28.4864 88.6286 27.158 87.3003C25.8297 85.9719 25.0834 84.1702 25.0834 82.2916V50.4166C25.0834 48.538 25.8297 46.7363 27.158 45.4079C28.4864 44.0795 30.2881 43.3333 32.1667 43.3333H39.25" stroke="#17A1ED" stroke-width="4" stroke-linecap="round" stroke-linejoin="round"/>
<path d="M81.75 89.375V32.7083C81.75 30.8297 81.0037 29.028 79.6753 27.6997C78.347 26.3713 76.5453 25.625 74.6667 25.625H46.3333C44.4547 25.625 42.653 26.3713 41.3247 27.6997C39.9963 29.028 39.25 30.8297 39.25 32.7083V89.375" stroke="#17A1ED" stroke-width="4" stroke-linecap="round" stroke-linejoin="round"/>
</svg>
