<svg width="26" height="26" viewBox="0 0 26 26" fill="none" xmlns="http://www.w3.org/2000/svg">
<g clip-path="url(#clip0_232_299)">
<path d="M4.3334 11.2667V10.4H3.46673V11.2667H4.3334ZM11.2667 11.2667V10.4H10.4001V11.2667H11.2667ZM11.2667 18.2H10.4001V19.0667H11.2667V18.2ZM23.4001 6.06667H24.2667V5.70787L24.0137 5.45307L23.4001 6.06667ZM18.2001 0.866667L18.8137 0.253067L18.5589 0H18.2001V0.866667ZM4.3334 12.1333H6.06673V10.4H4.3334V12.1333ZM5.20007 19.0667V14.7333H3.46673V19.0667H5.20007ZM5.20007 14.7333V11.2667H3.46673V14.7333H5.20007ZM6.06673 13.8667H4.3334V15.6H6.06673V13.8667ZM6.9334 13C6.9334 13.2299 6.84209 13.4503 6.67956 13.6128C6.51703 13.7754 6.29659 13.8667 6.06673 13.8667V15.6C6.75629 15.6 7.41762 15.3261 7.90521 14.8385C8.3928 14.3509 8.66673 13.6896 8.66673 13H6.9334ZM6.06673 12.1333C6.29659 12.1333 6.51703 12.2246 6.67956 12.3872C6.84209 12.5497 6.9334 12.7701 6.9334 13H8.66673C8.66673 12.3104 8.3928 11.6491 7.90521 11.1615C7.41762 10.6739 6.75629 10.4 6.06673 10.4V12.1333ZM10.4001 11.2667V18.2H12.1334V11.2667H10.4001ZM11.2667 19.0667H13.0001V17.3333H11.2667V19.0667ZM15.6001 16.4667V13H13.8667V16.4667H15.6001ZM13.0001 10.4H11.2667V12.1333H13.0001V10.4ZM15.6001 13C15.6001 12.3104 15.3261 11.6491 14.8385 11.1615C14.3509 10.6739 13.6896 10.4 13.0001 10.4V12.1333C13.2299 12.1333 13.4504 12.2246 13.6129 12.3872C13.7754 12.5497 13.8667 12.7701 13.8667 13H15.6001ZM13.0001 19.0667C13.6896 19.0667 14.3509 18.7927 14.8385 18.3051C15.3261 17.8176 15.6001 17.1562 15.6001 16.4667H13.8667C13.8667 16.6965 13.7754 16.917 13.6129 17.0795C13.4504 17.242 13.2299 17.3333 13.0001 17.3333V19.0667ZM17.3334 10.4V19.0667H19.0667V10.4H17.3334ZM18.2001 12.1333H22.5334V10.4H18.2001V12.1333ZM18.2001 15.6H20.8001V13.8667H18.2001V15.6ZM3.46673 8.66667V2.6H1.7334V8.66667H3.46673ZM22.5334 6.06667V8.66667H24.2667V6.06667H22.5334ZM4.3334 1.73333H18.2001V0H4.3334V1.73333ZM17.5865 1.48027L22.7865 6.68027L24.0137 5.45307L18.8137 0.253067L17.5865 1.48027ZM3.46673 2.6C3.46673 2.37015 3.55804 2.14971 3.72057 1.98717C3.8831 1.82464 4.10354 1.73333 4.3334 1.73333V0C3.64384 0 2.98252 0.273928 2.49492 0.761522C2.00733 1.24912 1.7334 1.91044 1.7334 2.6H3.46673ZM1.7334 20.8V23.4H3.46673V20.8H1.7334ZM4.3334 26H21.6667V24.2667H4.3334V26ZM24.2667 23.4V20.8H22.5334V23.4H24.2667ZM21.6667 26C22.3563 26 23.0176 25.7261 23.5052 25.2385C23.9928 24.7509 24.2667 24.0896 24.2667 23.4H22.5334C22.5334 23.6299 22.4421 23.8503 22.2796 24.0128C22.117 24.1754 21.8966 24.2667 21.6667 24.2667V26ZM1.7334 23.4C1.7334 24.0896 2.00733 24.7509 2.49492 25.2385C2.98252 25.7261 3.64384 26 4.3334 26V24.2667C4.10354 24.2667 3.8831 24.1754 3.72057 24.0128C3.55804 23.8503 3.46673 23.6299 3.46673 23.4H1.7334Z" fill="#758B81"/>
<path d="M4.3334 11.2667V10.4H3.46673V11.2667H4.3334ZM11.2667 11.2667V10.4H10.4001V11.2667H11.2667ZM11.2667 18.2H10.4001V19.0667H11.2667V18.2ZM23.4001 6.06667H24.2667V5.70787L24.0137 5.45307L23.4001 6.06667ZM18.2001 0.866667L18.8137 0.253067L18.5589 0H18.2001V0.866667ZM4.3334 12.1333H6.06673V10.4H4.3334V12.1333ZM5.20007 19.0667V14.7333H3.46673V19.0667H5.20007ZM5.20007 14.7333V11.2667H3.46673V14.7333H5.20007ZM6.06673 13.8667H4.3334V15.6H6.06673V13.8667ZM6.9334 13C6.9334 13.2299 6.84209 13.4503 6.67956 13.6128C6.51703 13.7754 6.29659 13.8667 6.06673 13.8667V15.6C6.75629 15.6 7.41762 15.3261 7.90521 14.8385C8.3928 14.3509 8.66673 13.6896 8.66673 13H6.9334ZM6.06673 12.1333C6.29659 12.1333 6.51703 12.2246 6.67956 12.3872C6.84209 12.5497 6.9334 12.7701 6.9334 13H8.66673C8.66673 12.3104 8.3928 11.6491 7.90521 11.1615C7.41762 10.6739 6.75629 10.4 6.06673 10.4V12.1333ZM10.4001 11.2667V18.2H12.1334V11.2667H10.4001ZM11.2667 19.0667H13.0001V17.3333H11.2667V19.0667ZM15.6001 16.4667V13H13.8667V16.4667H15.6001ZM13.0001 10.4H11.2667V12.1333H13.0001V10.4ZM15.6001 13C15.6001 12.3104 15.3261 11.6491 14.8385 11.1615C14.3509 10.6739 13.6896 10.4 13.0001 10.4V12.1333C13.2299 12.1333 13.4504 12.2246 13.6129 12.3872C13.7754 12.5497 13.8667 12.7701 13.8667 13H15.6001ZM13.0001 19.0667C13.6896 19.0667 14.3509 18.7927 14.8385 18.3051C15.3261 17.8176 15.6001 17.1562 15.6001 16.4667H13.8667C13.8667 16.6965 13.7754 16.917 13.6129 17.0795C13.4504 17.242 13.2299 17.3333 13.0001 17.3333V19.0667ZM17.3334 10.4V19.0667H19.0667V10.4H17.3334ZM18.2001 12.1333H22.5334V10.4H18.2001V12.1333ZM18.2001 15.6H20.8001V13.8667H18.2001V15.6ZM3.46673 8.66667V2.6H1.7334V8.66667H3.46673ZM22.5334 6.06667V8.66667H24.2667V6.06667H22.5334ZM4.3334 1.73333H18.2001V0H4.3334V1.73333ZM17.5865 1.48027L22.7865 6.68027L24.0137 5.45307L18.8137 0.253067L17.5865 1.48027ZM3.46673 2.6C3.46673 2.37015 3.55804 2.14971 3.72057 1.98717C3.8831 1.82464 4.10354 1.73333 4.3334 1.73333V0C3.64384 0 2.98252 0.273928 2.49492 0.761522C2.00733 1.24912 1.7334 1.91044 1.7334 2.6H3.46673ZM1.7334 20.8V23.4H3.46673V20.8H1.7334ZM4.3334 26H21.6667V24.2667H4.3334V26ZM24.2667 23.4V20.8H22.5334V23.4H24.2667ZM21.6667 26C22.3563 26 23.0176 25.7261 23.5052 25.2385C23.9928 24.7509 24.2667 24.0896 24.2667 23.4H22.5334C22.5334 23.6299 22.4421 23.8503 22.2796 24.0128C22.117 24.1754 21.8966 24.2667 21.6667 24.2667V26ZM1.7334 23.4C1.7334 24.0896 2.00733 24.7509 2.49492 25.2385C2.98252 25.7261 3.64384 26 4.3334 26V24.2667C4.10354 24.2667 3.8831 24.1754 3.72057 24.0128C3.55804 23.8503 3.46673 23.6299 3.46673 23.4H1.7334Z" fill="#758B81"/>
</g>
<defs>
<clipPath id="clip0_232_299">
<rect width="26" height="26" fill="white"/>
</clipPath>
</defs>
</svg>
