<svg width="50" height="50" viewBox="0 0 50 50" fill="none" xmlns="http://www.w3.org/2000/svg">
<path d="M22.9167 4.16663V8.33329" stroke="#17A1ED" stroke-width="4" stroke-linecap="round" stroke-linejoin="round"/>
<path d="M10.4167 4.16663V8.33329" stroke="#17A1ED" stroke-width="4" stroke-linecap="round" stroke-linejoin="round"/>
<path d="M10.4167 6.25H8.33341C7.22835 6.25 6.16854 6.68899 5.38714 7.47039C4.60573 8.25179 4.16675 9.3116 4.16675 10.4167V18.75C4.16675 22.0652 5.48371 25.2446 7.82791 27.5888C10.1721 29.933 13.3515 31.25 16.6667 31.25C19.982 31.25 23.1614 29.933 25.5056 27.5888C27.8498 25.2446 29.1667 22.0652 29.1667 18.75V10.4167C29.1667 9.3116 28.7278 8.25179 27.9464 7.47039C27.165 6.68899 26.1051 6.25 25.0001 6.25H22.9167" stroke="#17A1ED" stroke-width="4" stroke-linecap="round" stroke-linejoin="round"/>
<path d="M16.6667 31.25C16.6667 34.5652 17.9837 37.7446 20.3279 40.0888C22.6721 42.433 25.8515 43.75 29.1667 43.75C32.482 43.75 35.6614 42.433 38.0056 40.0888C40.3498 37.7446 41.6667 34.5652 41.6667 31.25V25" stroke="#17A1ED" stroke-width="4" stroke-linecap="round" stroke-linejoin="round"/>
<path d="M41.6667 25C43.9679 25 45.8333 23.1345 45.8333 20.8333C45.8333 18.5321 43.9679 16.6666 41.6667 16.6666C39.3655 16.6666 37.5 18.5321 37.5 20.8333C37.5 23.1345 39.3655 25 41.6667 25Z" stroke="#17A1ED" stroke-width="4" stroke-linecap="round" stroke-linejoin="round"/>
</svg>
